<svg xmlns="http://www.w3.org/2000/svg" xmlns:xlink="http://www.w3.org/1999/xlink" width="1200" zoomAndPan="magnify" viewBox="0 0 900 449.999984" height="600" preserveAspectRatio="xMidYMid meet" version="1.0"><defs><clipPath id="c4e473543b"><path d="M 267.175781 252.730469 L 363.503906 252.730469 L 363.503906 365.613281 L 267.175781 365.613281 Z M 267.175781 252.730469 " clip-rule="nonzero"/></clipPath><clipPath id="bf14f8d316"><path d="M 342.65625 321.738281 C 342.65625 299.269531 328.289062 287.742188 314.527344 287.742188 C 300.570312 287.742188 286.597656 299.480469 286.195312 323.160156 C 285.984375 343.195312 295.707031 363.636719 314.726562 363.636719 C 332.933594 363.636719 342.65625 344.816406 342.65625 326.402344 Z M 363.5 308.378906 L 363.5 365.050781 L 361.476562 365.050781 C 361.476562 357.964844 359.253906 355.535156 355.203125 355.535156 C 349.738281 355.535156 340.835938 359.78125 330.511719 362.617188 C 324.84375 364.238281 319.378906 365.246094 313.914062 365.246094 C 284.78125 365.246094 267.175781 343.996094 267.175781 323.554688 C 267.175781 295.230469 286.597656 281.0625 305.824219 281.0625 C 322.015625 281.0625 338.003906 290.984375 342.65625 310.613281 L 342.65625 308.378906 C 342.65625 264.675781 332.132812 254.347656 304.609375 254.347656 L 304.609375 252.730469 C 339.425781 252.730469 363.5 268.113281 363.5 308.378906 " clip-rule="nonzero"/></clipPath><clipPath id="46805616a0"><path d="M 0.175781 0.730469 L 96.503906 0.730469 L 96.503906 113.28125 L 0.175781 113.28125 Z M 0.175781 0.730469 " clip-rule="nonzero"/></clipPath><clipPath id="3dcb6f2c1f"><path d="M 75.65625 69.738281 C 75.65625 47.269531 61.289062 35.742188 47.527344 35.742188 C 33.570312 35.742188 19.597656 47.480469 19.195312 71.160156 C 18.984375 91.195312 28.707031 111.636719 47.726562 111.636719 C 65.933594 111.636719 75.65625 92.816406 75.65625 74.402344 Z M 96.5 56.378906 L 96.5 113.050781 L 94.476562 113.050781 C 94.476562 105.964844 92.253906 103.535156 88.203125 103.535156 C 82.738281 103.535156 73.835938 107.78125 63.511719 110.617188 C 57.84375 112.238281 52.378906 113.246094 46.914062 113.246094 C 17.78125 113.246094 0.175781 91.996094 0.175781 71.554688 C 0.175781 43.230469 19.597656 29.0625 38.824219 29.0625 C 55.015625 29.0625 71.003906 38.984375 75.65625 58.613281 L 75.65625 56.378906 C 75.65625 12.675781 65.132812 2.347656 37.609375 2.347656 L 37.609375 0.730469 C 72.425781 0.730469 96.5 16.113281 96.5 56.378906 " clip-rule="nonzero"/></clipPath><clipPath id="833dbe7051"><rect x="0" width="97" y="0" height="114"/></clipPath><clipPath id="ae0068b668"><path d="M 385.558594 254 L 516.816406 254 L 516.816406 365.042969 L 385.558594 365.042969 Z M 385.558594 254 " clip-rule="nonzero"/></clipPath><clipPath id="1664aa2a34"><path d="M 516.6875 365.042969 L 498.074219 365.042969 L 498.074219 290.167969 C 498.074219 267.292969 490.179688 258.589844 481.683594 258.589844 C 471.359375 258.589844 460.234375 271.136719 460.234375 286.519531 C 460.433594 288.335938 460.433594 290.167969 460.433594 292.191406 L 460.433594 365.042969 L 442.019531 365.042969 L 442.019531 290.167969 C 442.019531 267.292969 434.125 258.589844 425.628906 258.589844 C 415.304688 258.589844 404.179688 271.136719 404.179688 286.519531 L 404.179688 365.042969 L 385.558594 365.042969 L 385.558594 254.34375 L 404.179688 254.34375 L 404.179688 276.613281 C 408.429688 261.832031 420.164062 254.144531 431.691406 254.144531 C 443.835938 254.144531 455.78125 262.445312 459.414062 280.453125 C 462.65625 263.253906 475.410156 254.144531 487.957031 254.144531 C 502.320312 254.144531 516.695312 266.089844 516.695312 292.191406 Z M 516.6875 365.042969 " clip-rule="nonzero"/></clipPath><clipPath id="f41f6fb734"><path d="M 0.558594 0 L 131.71875 0 L 131.71875 111.042969 L 0.558594 111.042969 Z M 0.558594 0 " clip-rule="nonzero"/></clipPath><clipPath id="59ca8c1a86"><path d="M 131.6875 111.042969 L 113.074219 111.042969 L 113.074219 36.167969 C 113.074219 13.292969 105.179688 4.589844 96.683594 4.589844 C 86.359375 4.589844 75.234375 17.136719 75.234375 32.519531 C 75.433594 34.335938 75.433594 36.167969 75.433594 38.191406 L 75.433594 111.042969 L 57.019531 111.042969 L 57.019531 36.167969 C 57.019531 13.292969 49.125 4.589844 40.628906 4.589844 C 30.304688 4.589844 19.179688 17.136719 19.179688 32.519531 L 19.179688 111.042969 L 0.558594 111.042969 L 0.558594 0.34375 L 19.179688 0.34375 L 19.179688 22.613281 C 23.429688 7.832031 35.164062 0.144531 46.691406 0.144531 C 58.835938 0.144531 70.78125 8.445312 74.414062 26.453125 C 77.65625 9.253906 90.410156 0.144531 102.957031 0.144531 C 117.320312 0.144531 131.695312 12.089844 131.695312 38.191406 Z M 131.6875 111.042969 " clip-rule="nonzero"/></clipPath><clipPath id="f65ca8f11f"><rect x="0" width="132" y="0" height="112"/></clipPath><clipPath id="bff69c0929"><path d="M 94 129 L 131.839844 129 L 131.839844 188 L 94 188 Z M 94 129 " clip-rule="nonzero"/></clipPath><clipPath id="22d6886252"><path d="M 122.746094 138.261719 C 88.25 170.351562 98.144531 175.738281 94.257812 186.980469 C 94.074219 187.507812 94.707031 187.910156 95.113281 187.527344 C 103.75 179.339844 112.707031 185.972656 127.761719 141.328125 C 128.550781 138.984375 130.597656 133.488281 131.800781 130.28125 C 132 129.753906 131.332031 129.339844 130.945312 129.753906 C 128.605469 132.28125 124.574219 136.574219 122.757812 138.273438 " clip-rule="nonzero"/></clipPath><clipPath id="e625885c65"><path d="M 0 0.121094 L 37.839844 0.121094 L 37.839844 58.921875 L 0 58.921875 Z M 0 0.121094 " clip-rule="nonzero"/></clipPath><clipPath id="db7921baad"><path d="M 28.746094 9.261719 C -5.75 41.351562 4.144531 46.738281 0.257812 57.980469 C 0.0742188 58.507812 0.707031 58.910156 1.113281 58.527344 C 9.75 50.339844 18.707031 56.972656 33.761719 12.328125 C 34.550781 9.984375 36.597656 4.488281 37.800781 1.28125 C 38 0.753906 37.332031 0.339844 36.945312 0.753906 C 34.605469 3.28125 30.574219 7.574219 28.757812 9.273438 " clip-rule="nonzero"/></clipPath><clipPath id="6a22069a0c"><rect x="0" width="38" y="0" height="59"/></clipPath><clipPath id="9aef9bb418"><path d="M 16 58 L 45.648438 58 L 45.648438 104.917969 L 16 104.917969 Z M 16 58 " clip-rule="nonzero"/></clipPath><clipPath id="128fed89f6"><path d="M 23.628906 65.496094 C 50.113281 90.753906 42.386719 94.839844 45.296875 103.609375 C 45.429688 104.015625 44.945312 104.332031 44.628906 104.023438 C 37.996094 97.578125 30.988281 102.65625 19.699219 67.839844 C 19.109375 66.011719 17.574219 61.730469 16.667969 59.222656 C 16.515625 58.808594 17.050781 58.492188 17.335938 58.820312 C 19.128906 60.800781 22.21875 64.183594 23.621094 65.507812 " clip-rule="nonzero"/></clipPath><clipPath id="e3546933eb"><path d="M 0.320312 0.320312 L 29.648438 0.320312 L 29.648438 46.398438 L 0.320312 46.398438 Z M 0.320312 0.320312 " clip-rule="nonzero"/></clipPath><clipPath id="02c0f3ee2a"><path d="M 7.628906 7.496094 C 34.113281 32.753906 26.386719 36.839844 29.296875 45.609375 C 29.429688 46.015625 28.945312 46.332031 28.628906 46.023438 C 21.996094 39.578125 14.988281 44.65625 3.699219 9.839844 C 3.109375 8.011719 1.574219 3.730469 0.667969 1.222656 C 0.515625 0.808594 1.050781 0.492188 1.335938 0.820312 C 3.128906 2.800781 6.21875 6.183594 7.621094 7.507812 " clip-rule="nonzero"/></clipPath><clipPath id="f5c05fc147"><rect x="0" width="30" y="0" height="47"/></clipPath><clipPath id="282d8cba66"><path d="M 47.5625 71.398438 L 87.785156 71.398438 L 87.785156 125.988281 L 47.5625 125.988281 Z M 47.5625 71.398438 " clip-rule="nonzero"/></clipPath><clipPath id="3ed9221301"><path d="M 48.046875 125.605469 L 86.933594 125.605469 C 87.175781 125.605469 87.382812 125.40625 87.382812 125.15625 L 87.382812 122.460938 C 87.382812 122.222656 87.1875 122.011719 86.933594 122.011719 L 85.25 122.011719 L 85.25 71.890625 L 50.222656 71.890625 L 50.222656 122.011719 L 48.046875 122.011719 C 47.804688 122.011719 47.597656 122.210938 47.597656 122.460938 L 47.597656 125.15625 C 47.597656 125.398438 47.792969 125.605469 48.046875 125.605469 " clip-rule="nonzero"/></clipPath><clipPath id="31ae8b780d"><path d="M 0.5625 0.761719 L 40.601562 0.761719 L 40.601562 54.761719 L 0.5625 54.761719 Z M 0.5625 0.761719 " clip-rule="nonzero"/></clipPath><clipPath id="c4a1ddff48"><path d="M 1.046875 54.605469 L 39.933594 54.605469 C 40.175781 54.605469 40.382812 54.40625 40.382812 54.15625 L 40.382812 51.460938 C 40.382812 51.222656 40.1875 51.011719 39.933594 51.011719 L 38.25 51.011719 L 38.25 0.890625 L 3.222656 0.890625 L 3.222656 51.011719 L 1.046875 51.011719 C 0.804688 51.011719 0.597656 51.210938 0.597656 51.460938 L 0.597656 54.15625 C 0.597656 54.398438 0.792969 54.605469 1.046875 54.605469 " clip-rule="nonzero"/></clipPath><clipPath id="efca83f331"><rect x="0" width="41" y="0" height="55"/></clipPath><clipPath id="6906c80989"><path d="M 47.5625 134 L 251 134 L 251 392 L 47.5625 392 Z M 47.5625 134 " clip-rule="nonzero"/></clipPath><clipPath id="11b66e46eb"><path d="M 150.359375 183.445312 C 123.328125 183.445312 101.628906 191.4375 85.257812 205.144531 L 85.257812 137.679688 L 86.933594 137.679688 C 87.175781 137.679688 87.382812 137.484375 87.382812 137.230469 L 87.382812 134.539062 C 87.382812 134.296875 87.1875 134.089844 86.933594 134.089844 L 48.046875 134.089844 C 47.804688 134.089844 47.597656 134.285156 47.597656 134.539062 L 47.597656 137.230469 C 47.597656 137.472656 47.792969 137.679688 48.046875 137.679688 L 50.222656 137.679688 L 50.222656 275.640625 L 48.046875 275.640625 C 47.804688 275.640625 47.597656 275.839844 47.597656 276.089844 L 47.597656 278.785156 C 47.597656 279.023438 47.792969 279.234375 48.046875 279.234375 L 88.09375 279.234375 C 87.910156 278.402344 87.722656 277.558594 87.535156 276.726562 C 78.175781 234.324219 93.261719 219.707031 108.589844 214.558594 C 123.917969 209.414062 142.039062 227.128906 147.183594 229.144531 C 148.101562 229.503906 149.078125 229.789062 150.117188 229.964844 C 150.863281 230.097656 151.640625 230.171875 152.4375 230.171875 C 160.476562 230.171875 180.949219 209.402344 196.289062 214.558594 C 201.707031 216.378906 207.070312 219.378906 211.375 224.371094 C 216.136719 229.921875 219.542969 237.914062 220.132812 249.484375 C 220.515625 256.972656 219.71875 265.964844 217.339844 276.726562 C 207.980469 319.128906 195.761719 368.5625 178.210938 368.5625 C 160.671875 368.5625 169.640625 334.597656 155.601562 326.003906 L 149.273438 326.003906 C 147.457031 327.109375 146.035156 328.632812 144.882812 330.460938 L 144.882812 330.480469 C 137.101562 342.800781 141.9375 368.570312 126.65625 368.570312 C 118.511719 368.570312 111.503906 357.917969 105.425781 342.261719 C 104.003906 338.585938 102.625 334.632812 101.289062 330.480469 L 101.289062 330.460938 C 101.289062 330.449219 101.289062 330.449219 101.277344 330.417969 C 99.808594 325.851562 98.386719 321.035156 97.019531 316.050781 C 94.5 306.867188 92.15625 297.167969 89.96875 287.585938 L 60.328125 287.585938 L 60.328125 287.574219 L 48.046875 287.574219 C 47.804688 287.574219 47.597656 287.773438 47.597656 288.011719 L 47.597656 290.707031 C 47.597656 290.949219 47.792969 291.15625 48.046875 291.15625 L 50.222656 291.15625 L 50.222656 390.949219 L 53.652344 390.949219 C 53.652344 377.625 58.601562 373.0625 68.113281 373.0625 C 87.527344 373.0625 121.039062 391.332031 150.730469 391.332031 C 215.457031 391.332031 250.867188 344.890625 250.867188 287.398438 C 250.867188 229.910156 215.457031 183.46875 150.359375 183.46875 " clip-rule="nonzero"/></clipPath><clipPath id="5749d5472b"><path d="M 0.5625 0 L 204 0 L 204 257.441406 L 0.5625 257.441406 Z M 0.5625 0 " clip-rule="nonzero"/></clipPath><clipPath id="26ef912233"><path d="M 103.359375 49.445312 C 76.328125 49.445312 54.628906 57.4375 38.257812 71.144531 L 38.257812 3.679688 L 39.933594 3.679688 C 40.175781 3.679688 40.382812 3.484375 40.382812 3.230469 L 40.382812 0.539062 C 40.382812 0.296875 40.1875 0.0898438 39.933594 0.0898438 L 1.046875 0.0898438 C 0.804688 0.0898438 0.597656 0.285156 0.597656 0.539062 L 0.597656 3.230469 C 0.597656 3.472656 0.792969 3.679688 1.046875 3.679688 L 3.222656 3.679688 L 3.222656 141.640625 L 1.046875 141.640625 C 0.804688 141.640625 0.597656 141.839844 0.597656 142.089844 L 0.597656 144.785156 C 0.597656 145.023438 0.792969 145.234375 1.046875 145.234375 L 41.09375 145.234375 C 40.910156 144.402344 40.722656 143.558594 40.535156 142.726562 C 31.175781 100.324219 46.261719 85.707031 61.589844 80.558594 C 76.917969 75.414062 95.039062 93.128906 100.183594 95.144531 C 101.101562 95.503906 102.078125 95.789062 103.117188 95.964844 C 103.863281 96.097656 104.640625 96.171875 105.4375 96.171875 C 113.476562 96.171875 133.949219 75.402344 149.289062 80.558594 C 154.707031 82.378906 160.070312 85.378906 164.375 90.371094 C 169.136719 95.921875 172.542969 103.914062 173.132812 115.484375 C 173.515625 122.972656 172.71875 131.964844 170.339844 142.726562 C 160.980469 185.128906 148.761719 234.5625 131.210938 234.5625 C 113.671875 234.5625 122.640625 200.597656 108.601562 192.003906 L 102.273438 192.003906 C 100.457031 193.109375 99.035156 194.632812 97.882812 196.460938 L 97.882812 196.480469 C 90.101562 208.800781 94.9375 234.570312 79.65625 234.570312 C 71.511719 234.570312 64.503906 223.917969 58.425781 208.261719 C 57.003906 204.585938 55.625 200.632812 54.289062 196.480469 L 54.289062 196.460938 C 54.289062 196.449219 54.289062 196.449219 54.277344 196.417969 C 52.808594 191.851562 51.386719 187.035156 50.019531 182.050781 C 47.5 172.867188 45.15625 163.167969 42.96875 153.585938 L 13.328125 153.585938 L 13.328125 153.574219 L 1.046875 153.574219 C 0.804688 153.574219 0.597656 153.773438 0.597656 154.011719 L 0.597656 156.707031 C 0.597656 156.949219 0.792969 157.15625 1.046875 157.15625 L 3.222656 157.15625 L 3.222656 256.949219 L 6.652344 256.949219 C 6.652344 243.625 11.601562 239.0625 21.113281 239.0625 C 40.527344 239.0625 74.039062 257.332031 103.730469 257.332031 C 168.457031 257.332031 203.867188 210.890625 203.867188 153.398438 C 203.867188 95.910156 168.457031 49.46875 103.359375 49.46875 " clip-rule="nonzero"/></clipPath><clipPath id="2cf84c8f8d"><rect x="0" width="204" y="0" height="258"/></clipPath><clipPath id="4cc6e8e9ec"><path d="M 540.160156 225 L 647 225 L 647 365.394531 L 540.160156 365.394531 Z M 540.160156 225 " clip-rule="nonzero"/></clipPath><clipPath id="e25734cc7a"><path d="M 625.964844 310.003906 C 625.964844 280.453125 613.210938 256.574219 593.578125 256.574219 C 573.75 256.574219 560.996094 280.453125 560.996094 310.003906 C 560.996094 339.554688 573.742188 363.433594 593.578125 363.433594 C 613.210938 363.433594 625.964844 339.554688 625.964844 310.003906 M 646.808594 310.003906 C 646.808594 340.5625 627.988281 365.25 593.589844 365.25 C 577.800781 365.25 560 355.539062 549.675781 355.539062 C 544.617188 355.539062 541.988281 357.96875 541.988281 365.050781 L 540.160156 365.050781 L 540.160156 225 L 558.785156 225 L 558.785156 266.285156 C 567.488281 259.003906 579.019531 254.746094 593.394531 254.746094 C 628 254.746094 646.820312 279.4375 646.820312 309.992188 " clip-rule="nonzero"/></clipPath><clipPath id="17efd19a09"><path d="M 0.160156 0 L 107 0 L 107 140.28125 L 0.160156 140.28125 Z M 0.160156 0 " clip-rule="nonzero"/></clipPath><clipPath id="ae50f02883"><path d="M 85.964844 85.003906 C 85.964844 55.453125 73.210938 31.574219 53.578125 31.574219 C 33.75 31.574219 20.996094 55.453125 20.996094 85.003906 C 20.996094 114.554688 33.742188 138.433594 53.578125 138.433594 C 73.210938 138.433594 85.964844 114.554688 85.964844 85.003906 M 106.808594 85.003906 C 106.808594 115.5625 87.988281 140.25 53.589844 140.25 C 37.800781 140.25 20 130.539062 9.675781 130.539062 C 4.617188 130.539062 1.988281 132.96875 1.988281 140.050781 L 0.160156 140.050781 L 0.160156 0 L 18.785156 0 L 18.785156 41.285156 C 27.488281 34.003906 39.019531 29.746094 53.394531 29.746094 C 88 29.746094 106.820312 54.4375 106.820312 84.992188 " clip-rule="nonzero"/></clipPath><clipPath id="37e1461001"><rect x="0" width="107" y="0" height="141"/></clipPath><clipPath id="17f0bc2ce9"><path d="M 661.171875 254.347656 L 768 254.347656 L 768 365.164062 L 661.171875 365.164062 Z M 661.171875 254.347656 " clip-rule="nonzero"/></clipPath><clipPath id="ca21c390b2"><path d="M 746.972656 309.792969 C 746.972656 280.253906 734.21875 256.363281 714.585938 256.363281 C 694.761719 256.363281 682.003906 280.242188 682.003906 309.792969 C 682.003906 339.132812 694.75 363.011719 714.585938 363.011719 C 734.21875 363.011719 746.972656 339.132812 746.972656 309.792969 M 767.820312 309.792969 C 767.820312 340.347656 749 365.039062 714.597656 365.039062 C 679.992188 365.050781 661.171875 340.359375 661.171875 309.792969 C 661.171875 279.222656 679.992188 254.347656 714.597656 254.347656 C 749 254.347656 767.820312 279.234375 767.820312 309.792969 " clip-rule="nonzero"/></clipPath><clipPath id="64d5dadab8"><path d="M 0.171875 0.347656 L 107 0.347656 L 107 111.164062 L 0.171875 111.164062 Z M 0.171875 0.347656 " clip-rule="nonzero"/></clipPath><clipPath id="313ad297a9"><path d="M 85.972656 55.792969 C 85.972656 26.253906 73.21875 2.363281 53.585938 2.363281 C 33.761719 2.363281 21.003906 26.242188 21.003906 55.792969 C 21.003906 85.132812 33.75 109.011719 53.585938 109.011719 C 73.21875 109.011719 85.972656 85.132812 85.972656 55.792969 M 106.820312 55.792969 C 106.820312 86.347656 88 111.039062 53.597656 111.039062 C 18.992188 111.050781 0.171875 86.359375 0.171875 55.792969 C 0.171875 25.222656 18.992188 0.347656 53.597656 0.347656 C 88 0.347656 106.820312 25.234375 106.820312 55.792969 " clip-rule="nonzero"/></clipPath><clipPath id="a8c4f970ba"><rect x="0" width="107" y="0" height="112"/></clipPath><clipPath id="6603f65414"><path d="M 782.179688 254.347656 L 889 254.347656 L 889 365.164062 L 782.179688 365.164062 Z M 782.179688 254.347656 " clip-rule="nonzero"/></clipPath><clipPath id="1058ae39a7"><path d="M 867.984375 309.792969 C 867.984375 280.253906 855.230469 256.363281 835.597656 256.363281 C 815.769531 256.363281 803.015625 280.242188 803.015625 309.792969 C 803.015625 339.132812 815.761719 363.011719 835.597656 363.011719 C 855.230469 363.011719 867.984375 339.132812 867.984375 309.792969 M 888.828125 309.792969 C 888.828125 340.347656 870.007812 365.039062 835.609375 365.039062 C 801 365.050781 782.179688 340.359375 782.179688 309.792969 C 782.179688 279.222656 801 254.347656 835.609375 254.347656 C 870.007812 254.347656 888.828125 279.234375 888.828125 309.792969 " clip-rule="nonzero"/></clipPath><clipPath id="a82e0ae937"><path d="M 0.179688 0.347656 L 106.960938 0.347656 L 106.960938 111.164062 L 0.179688 111.164062 Z M 0.179688 0.347656 " clip-rule="nonzero"/></clipPath><clipPath id="45169e1120"><path d="M 85.984375 55.792969 C 85.984375 26.253906 73.230469 2.363281 53.597656 2.363281 C 33.769531 2.363281 21.015625 26.242188 21.015625 55.792969 C 21.015625 85.132812 33.761719 109.011719 53.597656 109.011719 C 73.230469 109.011719 85.984375 85.132812 85.984375 55.792969 M 106.828125 55.792969 C 106.828125 86.347656 88.007812 111.039062 53.609375 111.039062 C 19 111.050781 0.179688 86.359375 0.179688 55.792969 C 0.179688 25.222656 19 0.347656 53.609375 0.347656 C 88.007812 0.347656 106.828125 25.234375 106.828125 55.792969 " clip-rule="nonzero"/></clipPath><clipPath id="8c3be7ced0"><rect x="0" width="107" y="0" height="112"/></clipPath></defs><g clip-path="url(#c4e473543b)"><g clip-path="url(#bf14f8d316)"><g transform="matrix(1, 0, 0, 1, 267, 252)"><g clip-path="url(#833dbe7051)"><g clip-path="url(#46805616a0)"><g clip-path="url(#3dcb6f2c1f)"><path fill="#00665a" d="M 0.175781 0.730469 L 96.503906 0.730469 L 96.503906 113.238281 L 0.175781 113.238281 Z M 0.175781 0.730469 " fill-opacity="1" fill-rule="nonzero"/></g></g></g></g></g></g><g clip-path="url(#ae0068b668)"><g clip-path="url(#1664aa2a34)"><g transform="matrix(1, 0, 0, 1, 385, 254)"><g clip-path="url(#f65ca8f11f)"><g clip-path="url(#f41f6fb734)"><g clip-path="url(#59ca8c1a86)"><path fill="#00665a" d="M 0.558594 0.144531 L 131.816406 0.144531 L 131.816406 111.042969 L 0.558594 111.042969 Z M 0.558594 0.144531 " fill-opacity="1" fill-rule="nonzero"/></g></g></g></g></g></g><g clip-path="url(#bff69c0929)"><g clip-path="url(#22d6886252)"><g transform="matrix(1, 0, 0, 1, 94, 129)"><g clip-path="url(#6a22069a0c)"><g clip-path="url(#e625885c65)"><g clip-path="url(#db7921baad)"><rect x="-292" width="1296" fill="#00665a" height="647.999977" y="-227.999996" fill-opacity="1"/></g></g></g></g></g></g><g clip-path="url(#9aef9bb418)"><g clip-path="url(#128fed89f6)"><g transform="matrix(1, 0, 0, 1, 16, 58)"><g clip-path="url(#f5c05fc147)"><g clip-path="url(#e3546933eb)"><g clip-path="url(#02c0f3ee2a)"><rect x="-214" width="1296" fill="#00665a" height="647.999977" y="-156.999996" fill-opacity="1"/></g></g></g></g></g></g><g clip-path="url(#282d8cba66)"><g clip-path="url(#3ed9221301)"><g transform="matrix(1, 0, 0, 1, 47, 71)"><g clip-path="url(#efca83f331)"><g clip-path="url(#31ae8b780d)"><g clip-path="url(#c4a1ddff48)"><rect x="-245" width="1296" fill="#00665a" height="647.999977" y="-169.999996" fill-opacity="1"/></g></g></g></g></g></g><g clip-path="url(#6906c80989)"><g clip-path="url(#11b66e46eb)"><g transform="matrix(1, 0, 0, 1, 47, 134)"><g clip-path="url(#2cf84c8f8d)"><g clip-path="url(#5749d5472b)"><g clip-path="url(#26ef912233)"><rect x="-245" width="1296" fill="#00665a" height="647.999977" y="-232.999996" fill-opacity="1"/></g></g></g></g></g></g><g clip-path="url(#4cc6e8e9ec)"><g clip-path="url(#e25734cc7a)"><g transform="matrix(1, 0, 0, 1, 540, 225)"><g clip-path="url(#37e1461001)"><g clip-path="url(#17efd19a09)"><g clip-path="url(#ae50f02883)"><path fill="#00665a" d="M 0.160156 0 L 106.808594 0 L 106.808594 140.394531 L 0.160156 140.394531 Z M 0.160156 0 " fill-opacity="1" fill-rule="nonzero"/></g></g></g></g></g></g><g clip-path="url(#17f0bc2ce9)"><g clip-path="url(#ca21c390b2)"><g transform="matrix(1, 0, 0, 1, 661, 254)"><g clip-path="url(#a8c4f970ba)"><g clip-path="url(#64d5dadab8)"><g clip-path="url(#313ad297a9)"><path fill="#00665a" d="M 0.171875 0.347656 L 106.816406 0.347656 L 106.816406 111.164062 L 0.171875 111.164062 Z M 0.171875 0.347656 " fill-opacity="1" fill-rule="nonzero"/></g></g></g></g></g></g><g clip-path="url(#6603f65414)"><g clip-path="url(#1058ae39a7)"><g transform="matrix(1, 0, 0, 1, 782, 254)"><g clip-path="url(#8c3be7ced0)"><g clip-path="url(#a82e0ae937)"><g clip-path="url(#45169e1120)"><path fill="#00665a" d="M 0.179688 0.347656 L 106.828125 0.347656 L 106.828125 111.164062 L 0.179688 111.164062 Z M 0.179688 0.347656 " fill-opacity="1" fill-rule="nonzero"/></g></g></g></g></g></g></svg>